<svg xmlns="http://www.w3.org/2000/svg" version="1.1" xmlns:xlink="http://www.w3.org/1999/xlink" xmlns:svgjs="http://svgjs.com/svgjs" width="1440" height="560" preserveAspectRatio="none" viewBox="0 0 1440 560"><g mask="url(&quot;#SvgjsMask1398&quot;)" fill="none"><rect width="1440" height="560" x="0" y="0" fill="url(#SvgjsLinearGradient1399)"></rect><path d="M-100.01 350.4L-100.01 350.4" stroke="rgba(37, 38, 40, 1)" stroke-width="1.5"></path><path d="M-100.01 350.4L64.83 346.55" stroke="rgba(37, 38, 40, 1)" stroke-width="1.5"></path><path d="M-100.01 350.4L-74.38 548.46" stroke="rgba(37, 38, 40, 1)" stroke-width="1.5"></path><path d="M-74.38 548.46L-74.38 548.46" stroke="rgba(37, 38, 40, 1)" stroke-width="1.5"></path><path d="M-74.38 548.46L-103.47 642.66" stroke="rgba(37, 38, 40, 1)" stroke-width="1.5"></path><path d="M-74.38 548.46L107.44 532.47" stroke="rgba(37, 38, 40, 1)" stroke-width="1.5"></path><path d="M-103.47 642.66L-103.47 642.66" stroke="rgba(37, 38, 40, 1)" stroke-width="1.5"></path><path d="M64.83 346.55L64.83 346.55" stroke="rgba(37, 38, 40, 1)" stroke-width="1.5"></path><path d="M64.83 346.55L228.82 374.8" stroke="rgba(37, 38, 40, 1)" stroke-width="1.5"></path><path d="M64.83 346.55L107.44 532.47" stroke="rgba(37, 38, 40, 1)" stroke-width="1.5"></path><path d="M107.44 532.47L107.44 532.47" stroke="rgba(37, 38, 40, 1)" stroke-width="1.5"></path><path d="M107.44 532.47L189.95 518.7" stroke="rgba(37, 38, 40, 1)" stroke-width="1.5"></path><path d="M107.44 532.47L45.38 702.92" stroke="rgba(37, 38, 40, 1)" stroke-width="1.5"></path><path d="M107.44 532.47L228.82 374.8" stroke="rgba(37, 38, 40, 1)" stroke-width="1.5"></path><path d="M45.38 702.92L45.38 702.92" stroke="rgba(37, 38, 40, 1)" stroke-width="1.5"></path><path d="M45.38 702.92L-103.47 642.66" stroke="rgba(37, 38, 40, 1)" stroke-width="1.5"></path><path d="M45.38 702.92L227.7 708.44" stroke="rgba(37, 38, 40, 1)" stroke-width="1.5"></path><path d="M228.82 374.8L228.82 374.8" stroke="rgba(37, 38, 40, 1)" stroke-width="1.5"></path><path d="M228.82 374.8L347.9 340.9" stroke="rgba(37, 38, 40, 1)" stroke-width="1.5"></path><path d="M228.82 374.8L189.95 518.7" stroke="rgba(37, 38, 40, 1)" stroke-width="1.5"></path><path d="M228.82 374.8L406.99 545.29" stroke="rgba(37, 38, 40, 1)" stroke-width="1.5"></path><path d="M189.95 518.7L189.95 518.7" stroke="rgba(37, 38, 40, 1)" stroke-width="1.5"></path><path d="M227.7 708.44L227.7 708.44" stroke="rgba(37, 38, 40, 1)" stroke-width="1.5"></path><path d="M227.7 708.44L371.48 663.66" stroke="rgba(37, 38, 40, 1)" stroke-width="1.5"></path><path d="M227.7 708.44L189.95 518.7" stroke="rgba(37, 38, 40, 1)" stroke-width="1.5"></path><path d="M227.7 708.44L107.44 532.47" stroke="rgba(37, 38, 40, 1)" stroke-width="1.5"></path><path d="M347.9 340.9L347.9 340.9" stroke="rgba(37, 38, 40, 1)" stroke-width="1.5"></path><path d="M347.9 340.9L406.99 545.29" stroke="rgba(37, 38, 40, 1)" stroke-width="1.5"></path><path d="M347.9 340.9L189.95 518.7" stroke="rgba(37, 38, 40, 1)" stroke-width="1.5"></path><path d="M347.9 340.9L515.69 517.7" stroke="rgba(37, 38, 40, 1)" stroke-width="1.5"></path><path d="M347.9 340.9L64.83 346.55" stroke="rgba(37, 38, 40, 1)" stroke-width="1.5"></path><path d="M347.9 340.9L107.44 532.47" stroke="rgba(37, 38, 40, 1)" stroke-width="1.5"></path><path d="M406.99 545.29L406.99 545.29" stroke="rgba(37, 38, 40, 1)" stroke-width="1.5"></path><path d="M406.99 545.29L515.69 517.7" stroke="rgba(37, 38, 40, 1)" stroke-width="1.5"></path><path d="M406.99 545.29L371.48 663.66" stroke="rgba(37, 38, 40, 1)" stroke-width="1.5"></path><path d="M406.99 545.29L493.02 704.05" stroke="rgba(37, 38, 40, 1)" stroke-width="1.5"></path><path d="M371.48 663.66L371.48 663.66" stroke="rgba(37, 38, 40, 1)" stroke-width="1.5"></path><path d="M371.48 663.66L493.02 704.05" stroke="rgba(37, 38, 40, 1)" stroke-width="1.5"></path><path d="M515.69 517.7L515.69 517.7" stroke="rgba(37, 38, 40, 1)" stroke-width="1.5"></path><path d="M515.69 517.7L674.26 540.41" stroke="rgba(37, 38, 40, 1)" stroke-width="1.5"></path><path d="M515.69 517.7L653.7 402.96" stroke="rgba(37, 38, 40, 1)" stroke-width="1.5"></path><path d="M515.69 517.7L493.02 704.05" stroke="rgba(37, 38, 40, 1)" stroke-width="1.5"></path><path d="M493.02 704.05L493.02 704.05" stroke="rgba(37, 38, 40, 1)" stroke-width="1.5"></path><path d="M653.7 402.96L653.7 402.96" stroke="rgba(37, 38, 40, 1)" stroke-width="1.5"></path><path d="M653.7 402.96L674.26 540.41" stroke="rgba(37, 38, 40, 1)" stroke-width="1.5"></path><path d="M653.7 402.96L817.16 339.02" stroke="rgba(37, 38, 40, 1)" stroke-width="1.5"></path><path d="M674.26 540.41L674.26 540.41" stroke="rgba(37, 38, 40, 1)" stroke-width="1.5"></path><path d="M674.26 540.41L791.39 547.17" stroke="rgba(37, 38, 40, 1)" stroke-width="1.5"></path><path d="M674.26 540.41L820.27 640.67" stroke="rgba(37, 38, 40, 1)" stroke-width="1.5"></path><path d="M674.26 540.41L493.02 704.05" stroke="rgba(37, 38, 40, 1)" stroke-width="1.5"></path><path d="M674.26 540.41L817.16 339.02" stroke="rgba(37, 38, 40, 1)" stroke-width="1.5"></path><path d="M843.67 245.01L843.67 245.01" stroke="rgba(37, 38, 40, 1)" stroke-width="1.5"></path><path d="M843.67 245.01L817.16 339.02" stroke="rgba(37, 38, 40, 1)" stroke-width="1.5"></path><path d="M817.16 339.02L817.16 339.02" stroke="rgba(37, 38, 40, 1)" stroke-width="1.5"></path><path d="M791.39 547.17L791.39 547.17" stroke="rgba(37, 38, 40, 1)" stroke-width="1.5"></path><path d="M791.39 547.17L820.27 640.67" stroke="rgba(37, 38, 40, 1)" stroke-width="1.5"></path><path d="M820.27 640.67L820.27 640.67" stroke="rgba(37, 38, 40, 1)" stroke-width="1.5"></path><path d="M820.27 640.67L1000.78 658.73" stroke="rgba(37, 38, 40, 1)" stroke-width="1.5"></path><path d="M820.27 640.67L975.38 500.41" stroke="rgba(37, 38, 40, 1)" stroke-width="1.5"></path><path d="M1005.41 -77.38L1005.41 -77.38" stroke="rgba(37, 38, 40, 1)" stroke-width="1.5"></path><path d="M1005.41 -77.38L1098.87 -98.89" stroke="rgba(37, 38, 40, 1)" stroke-width="1.5"></path><path d="M1005.41 -77.38L1097.4 51.7" stroke="rgba(37, 38, 40, 1)" stroke-width="1.5"></path><path d="M1005.41 -77.38L951.31 79.12" stroke="rgba(37, 38, 40, 1)" stroke-width="1.5"></path><path d="M1005.41 -77.38L1273.55 -58.47" stroke="rgba(37, 38, 40, 1)" stroke-width="1.5"></path><path d="M1005.41 -77.38L958.01 193.94" stroke="rgba(37, 38, 40, 1)" stroke-width="1.5"></path><path d="M1005.41 -77.38L1291.66 84.77" stroke="rgba(37, 38, 40, 1)" stroke-width="1.5"></path><path d="M951.31 79.12L951.31 79.12" stroke="rgba(37, 38, 40, 1)" stroke-width="1.5"></path><path d="M951.31 79.12L958.01 193.94" stroke="rgba(37, 38, 40, 1)" stroke-width="1.5"></path><path d="M951.31 79.12L1097.4 51.7" stroke="rgba(37, 38, 40, 1)" stroke-width="1.5"></path><path d="M951.31 79.12L843.67 245.01" stroke="rgba(37, 38, 40, 1)" stroke-width="1.5"></path><path d="M951.31 79.12L1098.87 -98.89" stroke="rgba(37, 38, 40, 1)" stroke-width="1.5"></path><path d="M951.31 79.12L1157.3 237.59" stroke="rgba(37, 38, 40, 1)" stroke-width="1.5"></path><path d="M958.01 193.94L958.01 193.94" stroke="rgba(37, 38, 40, 1)" stroke-width="1.5"></path><path d="M958.01 193.94L843.67 245.01" stroke="rgba(37, 38, 40, 1)" stroke-width="1.5"></path><path d="M958.01 193.94L1097.4 51.7" stroke="rgba(37, 38, 40, 1)" stroke-width="1.5"></path><path d="M958.01 193.94L817.16 339.02" stroke="rgba(37, 38, 40, 1)" stroke-width="1.5"></path><path d="M1004.56 393.31L1004.56 393.31" stroke="rgba(37, 38, 40, 1)" stroke-width="1.5"></path><path d="M1004.56 393.31L975.38 500.41" stroke="rgba(37, 38, 40, 1)" stroke-width="1.5"></path><path d="M1004.56 393.31L1150.32 387.22" stroke="rgba(37, 38, 40, 1)" stroke-width="1.5"></path><path d="M975.38 500.41L975.38 500.41" stroke="rgba(37, 38, 40, 1)" stroke-width="1.5"></path><path d="M975.38 500.41L1124.98 528.27" stroke="rgba(37, 38, 40, 1)" stroke-width="1.5"></path><path d="M975.38 500.41L1000.78 658.73" stroke="rgba(37, 38, 40, 1)" stroke-width="1.5"></path><path d="M975.38 500.41L791.39 547.17" stroke="rgba(37, 38, 40, 1)" stroke-width="1.5"></path><path d="M975.38 500.41L1150.32 387.22" stroke="rgba(37, 38, 40, 1)" stroke-width="1.5"></path><path d="M1000.78 658.73L1000.78 658.73" stroke="rgba(37, 38, 40, 1)" stroke-width="1.5"></path><path d="M1000.78 658.73L1123.54 669.45" stroke="rgba(37, 38, 40, 1)" stroke-width="1.5"></path><path d="M1000.78 658.73L1124.98 528.27" stroke="rgba(37, 38, 40, 1)" stroke-width="1.5"></path><path d="M1098.87 -98.89L1098.87 -98.89" stroke="rgba(37, 38, 40, 1)" stroke-width="1.5"></path><path d="M1098.87 -98.89L1097.4 51.7" stroke="rgba(37, 38, 40, 1)" stroke-width="1.5"></path><path d="M1098.87 -98.89L1273.55 -58.47" stroke="rgba(37, 38, 40, 1)" stroke-width="1.5"></path><path d="M1098.87 -98.89L1291.66 84.77" stroke="rgba(37, 38, 40, 1)" stroke-width="1.5"></path><path d="M1097.4 51.7L1097.4 51.7" stroke="rgba(37, 38, 40, 1)" stroke-width="1.5"></path><path d="M1157.3 237.59L1157.3 237.59" stroke="rgba(37, 38, 40, 1)" stroke-width="1.5"></path><path d="M1157.3 237.59L1260.77 252.36" stroke="rgba(37, 38, 40, 1)" stroke-width="1.5"></path><path d="M1150.32 387.22L1150.32 387.22" stroke="rgba(37, 38, 40, 1)" stroke-width="1.5"></path><path d="M1150.32 387.22L1124.98 528.27" stroke="rgba(37, 38, 40, 1)" stroke-width="1.5"></path><path d="M1150.32 387.22L1157.3 237.59" stroke="rgba(37, 38, 40, 1)" stroke-width="1.5"></path><path d="M1150.32 387.22L1300.81 356.89" stroke="rgba(37, 38, 40, 1)" stroke-width="1.5"></path><path d="M1150.32 387.22L1260.77 252.36" stroke="rgba(37, 38, 40, 1)" stroke-width="1.5"></path><path d="M1124.98 528.27L1124.98 528.27" stroke="rgba(37, 38, 40, 1)" stroke-width="1.5"></path><path d="M1124.98 528.27L1123.54 669.45" stroke="rgba(37, 38, 40, 1)" stroke-width="1.5"></path><path d="M1123.54 669.45L1123.54 669.45" stroke="rgba(37, 38, 40, 1)" stroke-width="1.5"></path><path d="M1123.54 669.45L1307.84 664.7" stroke="rgba(37, 38, 40, 1)" stroke-width="1.5"></path><path d="M1123.54 669.45L975.38 500.41" stroke="rgba(37, 38, 40, 1)" stroke-width="1.5"></path><path d="M1273.55 -58.47L1273.55 -58.47" stroke="rgba(37, 38, 40, 1)" stroke-width="1.5"></path><path d="M1273.55 -58.47L1411.14 -60.6" stroke="rgba(37, 38, 40, 1)" stroke-width="1.5"></path><path d="M1273.55 -58.47L1291.66 84.77" stroke="rgba(37, 38, 40, 1)" stroke-width="1.5"></path><path d="M1273.55 -58.47L1394.92 46.98" stroke="rgba(37, 38, 40, 1)" stroke-width="1.5"></path><path d="M1273.55 -58.47L1097.4 51.7" stroke="rgba(37, 38, 40, 1)" stroke-width="1.5"></path><path d="M1291.66 84.77L1291.66 84.77" stroke="rgba(37, 38, 40, 1)" stroke-width="1.5"></path><path d="M1291.66 84.77L1394.92 46.98" stroke="rgba(37, 38, 40, 1)" stroke-width="1.5"></path><path d="M1291.66 84.77L1260.77 252.36" stroke="rgba(37, 38, 40, 1)" stroke-width="1.5"></path><path d="M1291.66 84.77L1411.14 -60.6" stroke="rgba(37, 38, 40, 1)" stroke-width="1.5"></path><path d="M1291.66 84.77L1391.28 253.28" stroke="rgba(37, 38, 40, 1)" stroke-width="1.5"></path><path d="M1260.77 252.36L1260.77 252.36" stroke="rgba(37, 38, 40, 1)" stroke-width="1.5"></path><path d="M1260.77 252.36L1300.81 356.89" stroke="rgba(37, 38, 40, 1)" stroke-width="1.5"></path><path d="M1260.77 252.36L1391.28 253.28" stroke="rgba(37, 38, 40, 1)" stroke-width="1.5"></path><path d="M1300.81 356.89L1300.81 356.89" stroke="rgba(37, 38, 40, 1)" stroke-width="1.5"></path><path d="M1300.81 356.89L1426.91 410.44" stroke="rgba(37, 38, 40, 1)" stroke-width="1.5"></path><path d="M1300.81 356.89L1391.28 253.28" stroke="rgba(37, 38, 40, 1)" stroke-width="1.5"></path><path d="M1287.22 511.33L1287.22 511.33" stroke="rgba(37, 38, 40, 1)" stroke-width="1.5"></path><path d="M1287.22 511.33L1307.84 664.7" stroke="rgba(37, 38, 40, 1)" stroke-width="1.5"></path><path d="M1287.22 511.33L1300.81 356.89" stroke="rgba(37, 38, 40, 1)" stroke-width="1.5"></path><path d="M1287.22 511.33L1124.98 528.27" stroke="rgba(37, 38, 40, 1)" stroke-width="1.5"></path><path d="M1307.84 664.7L1307.84 664.7" stroke="rgba(37, 38, 40, 1)" stroke-width="1.5"></path><path d="M1307.84 664.7L1398.98 704.89" stroke="rgba(37, 38, 40, 1)" stroke-width="1.5"></path><path d="M1307.84 664.7L1124.98 528.27" stroke="rgba(37, 38, 40, 1)" stroke-width="1.5"></path><path d="M1307.84 664.7L1544.88 701.27" stroke="rgba(37, 38, 40, 1)" stroke-width="1.5"></path><path d="M1307.84 664.7L1426.91 410.44" stroke="rgba(37, 38, 40, 1)" stroke-width="1.5"></path><path d="M1411.14 -60.6L1411.14 -60.6" stroke="rgba(37, 38, 40, 1)" stroke-width="1.5"></path><path d="M1411.14 -60.6L1394.92 46.98" stroke="rgba(37, 38, 40, 1)" stroke-width="1.5"></path><path d="M1411.14 -60.6L1595.46 -109.78" stroke="rgba(37, 38, 40, 1)" stroke-width="1.5"></path><path d="M1411.14 -60.6L1539.36 211.11" stroke="rgba(37, 38, 40, 1)" stroke-width="1.5"></path><path d="M1394.92 46.98L1394.92 46.98" stroke="rgba(37, 38, 40, 1)" stroke-width="1.5"></path><path d="M1391.28 253.28L1391.28 253.28" stroke="rgba(37, 38, 40, 1)" stroke-width="1.5"></path><path d="M1391.28 253.28L1539.36 211.11" stroke="rgba(37, 38, 40, 1)" stroke-width="1.5"></path><path d="M1391.28 253.28L1426.91 410.44" stroke="rgba(37, 38, 40, 1)" stroke-width="1.5"></path><path d="M1391.28 253.28L1545.08 376.61" stroke="rgba(37, 38, 40, 1)" stroke-width="1.5"></path><path d="M1426.91 410.44L1426.91 410.44" stroke="rgba(37, 38, 40, 1)" stroke-width="1.5"></path><path d="M1426.91 410.44L1545.08 376.61" stroke="rgba(37, 38, 40, 1)" stroke-width="1.5"></path><path d="M1398.98 704.89L1398.98 704.89" stroke="rgba(37, 38, 40, 1)" stroke-width="1.5"></path><path d="M1398.98 704.89L1544.88 701.27" stroke="rgba(37, 38, 40, 1)" stroke-width="1.5"></path><path d="M1595.46 -109.78L1595.46 -109.78" stroke="rgba(37, 38, 40, 1)" stroke-width="1.5"></path><path d="M1595.46 -109.78L1394.92 46.98" stroke="rgba(37, 38, 40, 1)" stroke-width="1.5"></path><path d="M1595.46 -109.78L1539.36 211.11" stroke="rgba(37, 38, 40, 1)" stroke-width="1.5"></path><path d="M1539.36 211.11L1539.36 211.11" stroke="rgba(37, 38, 40, 1)" stroke-width="1.5"></path><path d="M1539.36 211.11L1545.08 376.61" stroke="rgba(37, 38, 40, 1)" stroke-width="1.5"></path><path d="M1539.36 211.11L1394.92 46.98" stroke="rgba(37, 38, 40, 1)" stroke-width="1.5"></path><path d="M1539.36 211.11L1426.91 410.44" stroke="rgba(37, 38, 40, 1)" stroke-width="1.5"></path><path d="M1539.36 211.11L1291.66 84.77" stroke="rgba(37, 38, 40, 1)" stroke-width="1.5"></path><path d="M1539.36 211.11L1300.81 356.89" stroke="rgba(37, 38, 40, 1)" stroke-width="1.5"></path><path d="M1545.08 376.61L1545.08 376.61" stroke="rgba(37, 38, 40, 1)" stroke-width="1.5"></path><path d="M1545.08 376.61L1596.23 510.94" stroke="rgba(37, 38, 40, 1)" stroke-width="1.5"></path><path d="M1596.23 510.94L1596.23 510.94" stroke="rgba(37, 38, 40, 1)" stroke-width="1.5"></path><path d="M1596.23 510.94L1426.91 410.44" stroke="rgba(37, 38, 40, 1)" stroke-width="1.5"></path><path d="M1596.23 510.94L1544.88 701.27" stroke="rgba(37, 38, 40, 1)" stroke-width="1.5"></path><path d="M1596.23 510.94L1398.98 704.89" stroke="rgba(37, 38, 40, 1)" stroke-width="1.5"></path><path d="M1596.23 510.94L1539.36 211.11" stroke="rgba(37, 38, 40, 1)" stroke-width="1.5"></path><path d="M1544.88 701.27L1544.88 701.27" stroke="rgba(37, 38, 40, 1)" stroke-width="1.5"></path><path d="M1544.88 701.27L1426.91 410.44" stroke="rgba(37, 38, 40, 1)" stroke-width="1.5"></path><circle r="5" cx="-100.01" cy="350.4" fill="rgba(37, 38, 40, 1)"></circle><circle r="5" cx="-74.38" cy="548.46" fill="rgba(37, 38, 40, 1)"></circle><circle r="5" cx="-103.47" cy="642.66" fill="rgba(37, 38, 40, 1)"></circle><circle r="5" cx="64.83" cy="346.55" fill="rgba(37, 38, 40, 1)"></circle><circle r="5" cx="107.44" cy="532.47" fill="rgba(37, 38, 40, 1)"></circle><circle r="5" cx="45.38" cy="702.92" fill="rgba(37, 38, 40, 1)"></circle><circle r="5" cx="228.82" cy="374.8" fill="rgba(37, 38, 40, 1)"></circle><circle r="5" cx="189.95" cy="518.7" fill="rgba(37, 38, 40, 1)"></circle><circle r="5" cx="227.7" cy="708.44" fill="rgba(37, 38, 40, 1)"></circle><circle r="5" cx="347.9" cy="340.9" fill="rgba(37, 38, 40, 1)"></circle><circle r="5" cx="406.99" cy="545.29" fill="rgba(37, 38, 40, 1)"></circle><circle r="5" cx="371.48" cy="663.66" fill="rgba(37, 38, 40, 1)"></circle><circle r="5" cx="515.69" cy="517.7" fill="rgba(37, 38, 40, 1)"></circle><circle r="5" cx="493.02" cy="704.05" fill="rgba(37, 38, 40, 1)"></circle><circle r="5" cx="653.7" cy="402.96" fill="rgba(37, 38, 40, 1)"></circle><circle r="5" cx="674.26" cy="540.41" fill="rgba(37, 38, 40, 1)"></circle><circle r="5" cx="843.67" cy="245.01" fill="rgba(37, 38, 40, 1)"></circle><circle r="5" cx="817.16" cy="339.02" fill="rgba(37, 38, 40, 1)"></circle><circle r="5" cx="791.39" cy="547.17" fill="rgba(37, 38, 40, 1)"></circle><circle r="5" cx="820.27" cy="640.67" fill="rgba(37, 38, 40, 1)"></circle><circle r="5" cx="1005.41" cy="-77.38" fill="rgba(37, 38, 40, 1)"></circle><circle r="5" cx="951.31" cy="79.12" fill="rgba(37, 38, 40, 1)"></circle><circle r="5" cx="958.01" cy="193.94" fill="rgba(37, 38, 40, 1)"></circle><circle r="5" cx="1004.56" cy="393.31" fill="rgba(37, 38, 40, 1)"></circle><circle r="5" cx="975.38" cy="500.41" fill="rgba(37, 38, 40, 1)"></circle><circle r="5" cx="1000.78" cy="658.73" fill="rgba(37, 38, 40, 1)"></circle><circle r="5" cx="1098.87" cy="-98.89" fill="rgba(37, 38, 40, 1)"></circle><circle r="5" cx="1097.4" cy="51.7" fill="rgba(37, 38, 40, 1)"></circle><circle r="5" cx="1157.3" cy="237.59" fill="rgba(37, 38, 40, 1)"></circle><circle r="5" cx="1150.32" cy="387.22" fill="rgba(37, 38, 40, 1)"></circle><circle r="5" cx="1124.98" cy="528.27" fill="rgba(37, 38, 40, 1)"></circle><circle r="5" cx="1123.54" cy="669.45" fill="rgba(37, 38, 40, 1)"></circle><circle r="5" cx="1273.55" cy="-58.47" fill="rgba(37, 38, 40, 1)"></circle><circle r="5" cx="1291.66" cy="84.77" fill="rgba(37, 38, 40, 1)"></circle><circle r="5" cx="1260.77" cy="252.36" fill="rgba(37, 38, 40, 1)"></circle><circle r="5" cx="1300.81" cy="356.89" fill="rgba(37, 38, 40, 1)"></circle><circle r="5" cx="1287.22" cy="511.33" fill="rgba(37, 38, 40, 1)"></circle><circle r="5" cx="1307.84" cy="664.7" fill="rgba(37, 38, 40, 1)"></circle><circle r="5" cx="1411.14" cy="-60.6" fill="rgba(37, 38, 40, 1)"></circle><circle r="5" cx="1394.92" cy="46.98" fill="rgba(37, 38, 40, 1)"></circle><circle r="5" cx="1391.28" cy="253.28" fill="rgba(37, 38, 40, 1)"></circle><circle r="5" cx="1426.91" cy="410.44" fill="rgba(37, 38, 40, 1)"></circle><circle r="5" cx="1398.98" cy="704.89" fill="rgba(37, 38, 40, 1)"></circle><circle r="5" cx="1595.46" cy="-109.78" fill="rgba(37, 38, 40, 1)"></circle><circle r="5" cx="1539.36" cy="211.11" fill="rgba(37, 38, 40, 1)"></circle><circle r="5" cx="1545.08" cy="376.61" fill="rgba(37, 38, 40, 1)"></circle><circle r="5" cx="1596.23" cy="510.94" fill="rgba(37, 38, 40, 1)"></circle><circle r="5" cx="1544.88" cy="701.27" fill="rgba(37, 38, 40, 1)"></circle><path d="M497.39 515.65L497.39 515.65" stroke="hsl(0, 0%, 20.4%)" stroke-width="1.5"></path><path d="M497.39 515.65L395.39 511.41" stroke="hsl(0, 0%, 20.4%)" stroke-width="1.5"></path><path d="M497.39 515.65L671.17 540.35" stroke="hsl(0, 0%, 20.4%)" stroke-width="1.5"></path><path d="M707.14 639.38L707.14 639.38" stroke="hsl(0, 0%, 20.4%)" stroke-width="1.5"></path><path d="M707.14 639.38L671.17 540.35" stroke="hsl(0, 0%, 20.4%)" stroke-width="1.5"></path><path d="M707.14 639.38L857.15 687.86" stroke="hsl(0, 0%, 20.4%)" stroke-width="1.5"></path><path d="M707.14 639.38L833.64 532.53" stroke="hsl(0, 0%, 20.4%)" stroke-width="1.5"></path><path d="M707.14 639.38L677.27 407.89" stroke="hsl(0, 0%, 20.4%)" stroke-width="1.5"></path><path d="M707.14 639.38L497.39 515.65" stroke="hsl(0, 0%, 20.4%)" stroke-width="1.5"></path><path d="M707.14 639.38L792.18 389.69" stroke="hsl(0, 0%, 20.4%)" stroke-width="1.5"></path><path d="M792.18 389.69L792.18 389.69" stroke="hsl(0, 0%, 20.4%)" stroke-width="1.5"></path><path d="M792.18 389.69L677.27 407.89" stroke="hsl(0, 0%, 20.4%)" stroke-width="1.5"></path><path d="M792.18 389.69L833.64 532.53" stroke="hsl(0, 0%, 20.4%)" stroke-width="1.5"></path><path d="M1140.99 508.36L1140.99 508.36" stroke="hsl(0, 0%, 20.4%)" stroke-width="1.5"></path><path d="M1140.99 508.36L1095.76 406.81" stroke="hsl(0, 0%, 20.4%)" stroke-width="1.5"></path><path d="M1140.99 508.36L1115.42 647.7" stroke="hsl(0, 0%, 20.4%)" stroke-width="1.5"></path><path d="M1140.99 508.36L1307.34 547.65" stroke="hsl(0, 0%, 20.4%)" stroke-width="1.5"></path><path d="M1298.21 673.5L1298.21 673.5" stroke="hsl(0, 0%, 20.4%)" stroke-width="1.5"></path><path d="M1298.21 673.5L1398.31 682.8" stroke="hsl(0, 0%, 20.4%)" stroke-width="1.5"></path><path d="M1298.21 673.5L1307.34 547.65" stroke="hsl(0, 0%, 20.4%)" stroke-width="1.5"></path><path d="M1298.21 673.5L1389.69 544.62" stroke="hsl(0, 0%, 20.4%)" stroke-width="1.5"></path><path d="M1298.21 673.5L1115.42 647.7" stroke="hsl(0, 0%, 20.4%)" stroke-width="1.5"></path><path d="M1408.04 207.23L1408.04 207.23" stroke="hsl(0, 0%, 20.4%)" stroke-width="1.5"></path><path d="M1408.04 207.23L1305.43 235.53" stroke="hsl(0, 0%, 20.4%)" stroke-width="1.5"></path><path d="M1408.04 207.23L1428.11 65.71" stroke="hsl(0, 0%, 20.4%)" stroke-width="1.5"></path><path d="M1408.04 207.23L1290.3 95.95" stroke="hsl(0, 0%, 20.4%)" stroke-width="1.5"></path><path d="M1408.04 207.23L1428.07 389.01" stroke="hsl(0, 0%, 20.4%)" stroke-width="1.5"></path><path d="M1408.04 207.23L1593.05 200.46" stroke="hsl(0, 0%, 20.4%)" stroke-width="1.5"></path><path d="M1593.05 200.46L1593.05 200.46" stroke="hsl(0, 0%, 20.4%)" stroke-width="1.5"></path><path d="M1593.05 200.46L1588.85 46.73" stroke="hsl(0, 0%, 20.4%)" stroke-width="1.5"></path><path d="M1593.05 200.46L1540.78 404.84" stroke="hsl(0, 0%, 20.4%)" stroke-width="1.5"></path><path d="M1593.05 200.46L1428.11 65.71" stroke="hsl(0, 0%, 20.4%)" stroke-width="1.5"></path><path d="M1593.05 200.46L1428.07 389.01" stroke="hsl(0, 0%, 20.4%)" stroke-width="1.5"></path><path d="M1593.05 200.46L1305.43 235.53" stroke="hsl(0, 0%, 20.4%)" stroke-width="1.5"></path><path d="M-93.36 676.87L-93.36 676.87" stroke="hsl(0, 0%, 20.4%)" stroke-width="1.5"></path><path d="M-93.36 676.87L40.93 702.49" stroke="hsl(0, 0%, 20.4%)" stroke-width="1.5"></path><path d="M-93.36 676.87L97.82 501.77" stroke="hsl(0, 0%, 20.4%)" stroke-width="1.5"></path><path d="M97.82 501.77L97.82 501.77" stroke="hsl(0, 0%, 20.4%)" stroke-width="1.5"></path><path d="M97.82 501.77L256.85 500.66" stroke="hsl(0, 0%, 20.4%)" stroke-width="1.5"></path><path d="M97.82 501.77L40.93 702.49" stroke="hsl(0, 0%, 20.4%)" stroke-width="1.5"></path><path d="M97.82 501.77L249.56 709.59" stroke="hsl(0, 0%, 20.4%)" stroke-width="1.5"></path><path d="M40.93 702.49L40.93 702.49" stroke="hsl(0, 0%, 20.4%)" stroke-width="1.5"></path><path d="M256.85 500.66L256.85 500.66" stroke="hsl(0, 0%, 20.4%)" stroke-width="1.5"></path><path d="M256.85 500.66L395.39 511.41" stroke="hsl(0, 0%, 20.4%)" stroke-width="1.5"></path><path d="M256.85 500.66L349.3 673.13" stroke="hsl(0, 0%, 20.4%)" stroke-width="1.5"></path><path d="M249.56 709.59L249.56 709.59" stroke="hsl(0, 0%, 20.4%)" stroke-width="1.5"></path><path d="M249.56 709.59L349.3 673.13" stroke="hsl(0, 0%, 20.4%)" stroke-width="1.5"></path><path d="M249.56 709.59L40.93 702.49" stroke="hsl(0, 0%, 20.4%)" stroke-width="1.5"></path><path d="M249.56 709.59L256.85 500.66" stroke="hsl(0, 0%, 20.4%)" stroke-width="1.5"></path><path d="M249.56 709.59L395.39 511.41" stroke="hsl(0, 0%, 20.4%)" stroke-width="1.5"></path><path d="M249.56 709.59L497.39 515.65" stroke="hsl(0, 0%, 20.4%)" stroke-width="1.5"></path><path d="M395.39 511.41L395.39 511.41" stroke="hsl(0, 0%, 20.4%)" stroke-width="1.5"></path><path d="M395.39 511.41L349.3 673.13" stroke="hsl(0, 0%, 20.4%)" stroke-width="1.5"></path><path d="M349.3 673.13L349.3 673.13" stroke="hsl(0, 0%, 20.4%)" stroke-width="1.5"></path><path d="M677.27 407.89L677.27 407.89" stroke="hsl(0, 0%, 20.4%)" stroke-width="1.5"></path><path d="M677.27 407.89L671.17 540.35" stroke="hsl(0, 0%, 20.4%)" stroke-width="1.5"></path><path d="M671.17 540.35L671.17 540.35" stroke="hsl(0, 0%, 20.4%)" stroke-width="1.5"></path><path d="M671.17 540.35L833.64 532.53" stroke="hsl(0, 0%, 20.4%)" stroke-width="1.5"></path><path d="M671.17 540.35L792.18 389.69" stroke="hsl(0, 0%, 20.4%)" stroke-width="1.5"></path><path d="M671.17 540.35L857.15 687.86" stroke="hsl(0, 0%, 20.4%)" stroke-width="1.5"></path><path d="M833.64 532.53L833.64 532.53" stroke="hsl(0, 0%, 20.4%)" stroke-width="1.5"></path><path d="M833.64 532.53L963.21 493.64" stroke="hsl(0, 0%, 20.4%)" stroke-width="1.5"></path><path d="M833.64 532.53L857.15 687.86" stroke="hsl(0, 0%, 20.4%)" stroke-width="1.5"></path><path d="M833.64 532.53L967.49 394.67" stroke="hsl(0, 0%, 20.4%)" stroke-width="1.5"></path><path d="M857.15 687.86L857.15 687.86" stroke="hsl(0, 0%, 20.4%)" stroke-width="1.5"></path><path d="M967.49 394.67L967.49 394.67" stroke="hsl(0, 0%, 20.4%)" stroke-width="1.5"></path><path d="M967.49 394.67L963.21 493.64" stroke="hsl(0, 0%, 20.4%)" stroke-width="1.5"></path><path d="M967.49 394.67L1095.76 406.81" stroke="hsl(0, 0%, 20.4%)" stroke-width="1.5"></path><path d="M967.49 394.67L792.18 389.69" stroke="hsl(0, 0%, 20.4%)" stroke-width="1.5"></path><path d="M963.21 493.64L963.21 493.64" stroke="hsl(0, 0%, 20.4%)" stroke-width="1.5"></path><path d="M963.21 493.64L1095.76 406.81" stroke="hsl(0, 0%, 20.4%)" stroke-width="1.5"></path><path d="M963.21 493.64L1140.99 508.36" stroke="hsl(0, 0%, 20.4%)" stroke-width="1.5"></path><path d="M1111.23 230.52L1111.23 230.52" stroke="hsl(0, 0%, 20.4%)" stroke-width="1.5"></path><path d="M1111.23 230.52L1095.76 406.81" stroke="hsl(0, 0%, 20.4%)" stroke-width="1.5"></path><path d="M1111.23 230.52L1305.43 235.53" stroke="hsl(0, 0%, 20.4%)" stroke-width="1.5"></path><path d="M1111.23 230.52L967.49 394.67" stroke="hsl(0, 0%, 20.4%)" stroke-width="1.5"></path><path d="M1111.23 230.52L1290.3 95.95" stroke="hsl(0, 0%, 20.4%)" stroke-width="1.5"></path><path d="M1111.23 230.52L1299.41 386.49" stroke="hsl(0, 0%, 20.4%)" stroke-width="1.5"></path><path d="M1111.23 230.52L1140.99 508.36" stroke="hsl(0, 0%, 20.4%)" stroke-width="1.5"></path><path d="M1095.76 406.81L1095.76 406.81" stroke="hsl(0, 0%, 20.4%)" stroke-width="1.5"></path><path d="M1095.76 406.81L1299.41 386.49" stroke="hsl(0, 0%, 20.4%)" stroke-width="1.5"></path><path d="M1095.76 406.81L1115.42 647.7" stroke="hsl(0, 0%, 20.4%)" stroke-width="1.5"></path><path d="M1115.42 647.7L1115.42 647.7" stroke="hsl(0, 0%, 20.4%)" stroke-width="1.5"></path><path d="M1115.42 647.7L1307.34 547.65" stroke="hsl(0, 0%, 20.4%)" stroke-width="1.5"></path><path d="M1115.42 647.7L963.21 493.64" stroke="hsl(0, 0%, 20.4%)" stroke-width="1.5"></path><path d="M1295.99 -84.95L1295.99 -84.95" stroke="hsl(0, 0%, 20.4%)" stroke-width="1.5"></path><path d="M1295.99 -84.95L1405.54 -80.47" stroke="hsl(0, 0%, 20.4%)" stroke-width="1.5"></path><path d="M1295.99 -84.95L1290.3 95.95" stroke="hsl(0, 0%, 20.4%)" stroke-width="1.5"></path><path d="M1295.99 -84.95L1428.11 65.71" stroke="hsl(0, 0%, 20.4%)" stroke-width="1.5"></path><path d="M1295.99 -84.95L1545.02 -110.88" stroke="hsl(0, 0%, 20.4%)" stroke-width="1.5"></path><path d="M1290.3 95.95L1290.3 95.95" stroke="hsl(0, 0%, 20.4%)" stroke-width="1.5"></path><path d="M1290.3 95.95L1305.43 235.53" stroke="hsl(0, 0%, 20.4%)" stroke-width="1.5"></path><path d="M1290.3 95.95L1428.11 65.71" stroke="hsl(0, 0%, 20.4%)" stroke-width="1.5"></path><path d="M1305.43 235.53L1305.43 235.53" stroke="hsl(0, 0%, 20.4%)" stroke-width="1.5"></path><path d="M1305.43 235.53L1299.41 386.49" stroke="hsl(0, 0%, 20.4%)" stroke-width="1.5"></path><path d="M1299.41 386.49L1299.41 386.49" stroke="hsl(0, 0%, 20.4%)" stroke-width="1.5"></path><path d="M1299.41 386.49L1428.07 389.01" stroke="hsl(0, 0%, 20.4%)" stroke-width="1.5"></path><path d="M1299.41 386.49L1307.34 547.65" stroke="hsl(0, 0%, 20.4%)" stroke-width="1.5"></path><path d="M1299.41 386.49L1389.69 544.62" stroke="hsl(0, 0%, 20.4%)" stroke-width="1.5"></path><path d="M1299.41 386.49L1140.99 508.36" stroke="hsl(0, 0%, 20.4%)" stroke-width="1.5"></path><path d="M1307.34 547.65L1307.34 547.65" stroke="hsl(0, 0%, 20.4%)" stroke-width="1.5"></path><path d="M1307.34 547.65L1389.69 544.62" stroke="hsl(0, 0%, 20.4%)" stroke-width="1.5"></path><path d="M1405.54 -80.47L1405.54 -80.47" stroke="hsl(0, 0%, 20.4%)" stroke-width="1.5"></path><path d="M1405.54 -80.47L1545.02 -110.88" stroke="hsl(0, 0%, 20.4%)" stroke-width="1.5"></path><path d="M1405.54 -80.47L1428.11 65.71" stroke="hsl(0, 0%, 20.4%)" stroke-width="1.5"></path><path d="M1405.54 -80.47L1290.3 95.95" stroke="hsl(0, 0%, 20.4%)" stroke-width="1.5"></path><path d="M1405.54 -80.47L1588.85 46.73" stroke="hsl(0, 0%, 20.4%)" stroke-width="1.5"></path><path d="M1428.11 65.71L1428.11 65.71" stroke="hsl(0, 0%, 20.4%)" stroke-width="1.5"></path><path d="M1428.11 65.71L1588.85 46.73" stroke="hsl(0, 0%, 20.4%)" stroke-width="1.5"></path><path d="M1428.07 389.01L1428.07 389.01" stroke="hsl(0, 0%, 20.4%)" stroke-width="1.5"></path><path d="M1428.07 389.01L1540.78 404.84" stroke="hsl(0, 0%, 20.4%)" stroke-width="1.5"></path><path d="M1428.07 389.01L1389.69 544.62" stroke="hsl(0, 0%, 20.4%)" stroke-width="1.5"></path><path d="M1428.07 389.01L1305.43 235.53" stroke="hsl(0, 0%, 20.4%)" stroke-width="1.5"></path><path d="M1389.69 544.62L1389.69 544.62" stroke="hsl(0, 0%, 20.4%)" stroke-width="1.5"></path><path d="M1389.69 544.62L1398.31 682.8" stroke="hsl(0, 0%, 20.4%)" stroke-width="1.5"></path><path d="M1398.31 682.8L1398.31 682.8" stroke="hsl(0, 0%, 20.4%)" stroke-width="1.5"></path><path d="M1398.31 682.8L1550.94 675.22" stroke="hsl(0, 0%, 20.4%)" stroke-width="1.5"></path><path d="M1398.31 682.8L1307.34 547.65" stroke="hsl(0, 0%, 20.4%)" stroke-width="1.5"></path><path d="M1398.31 682.8L1550.52 557.25" stroke="hsl(0, 0%, 20.4%)" stroke-width="1.5"></path><path d="M1398.31 682.8L1115.42 647.7" stroke="hsl(0, 0%, 20.4%)" stroke-width="1.5"></path><path d="M1545.02 -110.88L1545.02 -110.88" stroke="hsl(0, 0%, 20.4%)" stroke-width="1.5"></path><path d="M1588.85 46.73L1588.85 46.73" stroke="hsl(0, 0%, 20.4%)" stroke-width="1.5"></path><path d="M1588.85 46.73L1545.02 -110.88" stroke="hsl(0, 0%, 20.4%)" stroke-width="1.5"></path><path d="M1588.85 46.73L1408.04 207.23" stroke="hsl(0, 0%, 20.4%)" stroke-width="1.5"></path><path d="M1540.78 404.84L1540.78 404.84" stroke="hsl(0, 0%, 20.4%)" stroke-width="1.5"></path><path d="M1540.78 404.84L1550.52 557.25" stroke="hsl(0, 0%, 20.4%)" stroke-width="1.5"></path><path d="M1540.78 404.84L1389.69 544.62" stroke="hsl(0, 0%, 20.4%)" stroke-width="1.5"></path><path d="M1540.78 404.84L1408.04 207.23" stroke="hsl(0, 0%, 20.4%)" stroke-width="1.5"></path><path d="M1540.78 404.84L1299.41 386.49" stroke="hsl(0, 0%, 20.4%)" stroke-width="1.5"></path><path d="M1550.52 557.25L1550.52 557.25" stroke="hsl(0, 0%, 20.4%)" stroke-width="1.5"></path><path d="M1550.52 557.25L1550.94 675.22" stroke="hsl(0, 0%, 20.4%)" stroke-width="1.5"></path><path d="M1550.94 675.22L1550.94 675.22" stroke="hsl(0, 0%, 20.4%)" stroke-width="1.5"></path><path d="M1550.94 675.22L1389.69 544.62" stroke="hsl(0, 0%, 20.4%)" stroke-width="1.5"></path><path d="M1550.94 675.22L1298.21 673.5" stroke="hsl(0, 0%, 20.4%)" stroke-width="1.5"></path><path d="M1550.94 675.22L1540.78 404.84" stroke="hsl(0, 0%, 20.4%)" stroke-width="1.5"></path><circle r="25" cx="497.39" cy="515.65" fill="url(#SvgjsRadialGradient1400)"></circle><circle r="25" cx="707.14" cy="639.38" fill="url(#SvgjsRadialGradient1400)"></circle><circle r="25" cx="792.18" cy="389.69" fill="url(#SvgjsRadialGradient1400)"></circle><circle r="25" cx="1140.99" cy="508.36" fill="url(#SvgjsRadialGradient1400)"></circle><circle r="25" cx="1298.21" cy="673.5" fill="url(#SvgjsRadialGradient1400)"></circle><circle r="25" cx="1408.04" cy="207.23" fill="url(#SvgjsRadialGradient1400)"></circle><circle r="25" cx="1593.05" cy="200.46" fill="url(#SvgjsRadialGradient1400)"></circle><circle r="5" cx="-93.36" cy="676.87" fill="#949494"></circle><circle r="5" cx="97.82" cy="501.77" fill="#949494"></circle><circle r="5" cx="40.93" cy="702.49" fill="#949494"></circle><circle r="5" cx="256.85" cy="500.66" fill="#949494"></circle><circle r="5" cx="249.56" cy="709.59" fill="#949494"></circle><circle r="5" cx="395.39" cy="511.41" fill="#949494"></circle><circle r="5" cx="349.3" cy="673.13" fill="#949494"></circle><circle r="5" cx="677.27" cy="407.89" fill="#949494"></circle><circle r="5" cx="671.17" cy="540.35" fill="#949494"></circle><circle r="5" cx="833.64" cy="532.53" fill="#949494"></circle><circle r="5" cx="857.15" cy="687.86" fill="#949494"></circle><circle r="5" cx="967.49" cy="394.67" fill="#949494"></circle><circle r="5" cx="963.21" cy="493.64" fill="#949494"></circle><circle r="5" cx="1111.23" cy="230.52" fill="#949494"></circle><circle r="5" cx="1095.76" cy="406.81" fill="#949494"></circle><circle r="5" cx="1115.42" cy="647.7" fill="#949494"></circle><circle r="5" cx="1295.99" cy="-84.95" fill="#949494"></circle><circle r="5" cx="1290.3" cy="95.95" fill="#949494"></circle><circle r="5" cx="1305.43" cy="235.53" fill="#949494"></circle><circle r="5" cx="1299.41" cy="386.49" fill="#949494"></circle><circle r="5" cx="1307.34" cy="547.65" fill="#949494"></circle><circle r="5" cx="1405.54" cy="-80.47" fill="#949494"></circle><circle r="5" cx="1428.11" cy="65.71" fill="#949494"></circle><circle r="5" cx="1428.07" cy="389.01" fill="#949494"></circle><circle r="5" cx="1389.69" cy="544.62" fill="#949494"></circle><circle r="5" cx="1398.31" cy="682.8" fill="#949494"></circle><circle r="5" cx="1545.02" cy="-110.88" fill="#949494"></circle><circle r="5" cx="1588.85" cy="46.73" fill="#949494"></circle><circle r="5" cx="1540.78" cy="404.84" fill="#949494"></circle><circle r="5" cx="1550.52" cy="557.25" fill="#949494"></circle><circle r="5" cx="1550.94" cy="675.22" fill="#949494"></circle></g><defs><mask id="SvgjsMask1398"><rect width="1440" height="560" fill="#ffffff"></rect></mask><linearGradient x1="15.28%" y1="-39.29%" x2="84.72%" y2="139.29%" gradientUnits="userSpaceOnUse" id="SvgjsLinearGradient1399"><stop stop-color="rgba(27, 27, 27, 1)" offset="0"></stop><stop stop-color="rgba(0, 0, 0, 1)" offset="1"></stop></linearGradient><radialGradient id="SvgjsRadialGradient1400"><stop stop-color="#ffffff" offset="0.1"></stop><stop stop-color="rgba(40, 40, 40, 1)" offset="0.2"></stop><stop stop-color="rgba(40, 40, 40, 0)" offset="1"></stop></radialGradient></defs></svg>